<svg xmlns="http://www.w3.org/2000/svg" viewBox="0 0 220 220" width="220" height="220">
  <ellipse cx="110" cy="195" rx="50" ry="6" fill="#000" opacity="0.15"/>
  <!-- 검은 귀 -->
  <circle cx="80" cy="48" r="14" fill="#1F2937" stroke="#0F172A" stroke-width="2.5"/>
  <circle cx="140" cy="48" r="14" fill="#1F2937" stroke="#0F172A" stroke-width="2.5"/>
  <!-- 검은 발 -->
  <ellipse cx="86" cy="180" rx="14" ry="10" fill="#1F2937" stroke="#0F172A" stroke-width="2.5"/>
  <ellipse cx="134" cy="180" rx="14" ry="10" fill="#1F2937" stroke="#0F172A" stroke-width="2.5"/>
  <!-- 흰 몸 -->
  <ellipse cx="110" cy="130" rx="50" ry="52" fill="#F9FAFB" stroke="#374151" stroke-width="3"/>
  <!-- 검은 팔 -->
  <ellipse cx="70" cy="125" rx="13" ry="22" fill="#1F2937" stroke="#0F172A" stroke-width="2.5" transform="rotate(-8 70 125)"/>
  <ellipse cx="150" cy="125" rx="13" ry="22" fill="#1F2937" stroke="#0F172A" stroke-width="2.5" transform="rotate(8 150 125)"/>
  <!-- 흰 머리 -->
  <circle cx="110" cy="80" r="36" fill="#F9FAFB" stroke="#374151" stroke-width="3"/>
  <!-- 검은 눈테 (특징적인 다크서클) -->
  <ellipse cx="98" cy="78" rx="9" ry="11" fill="#1F2937" transform="rotate(-15 98 78)"/>
  <ellipse cx="122" cy="78" rx="9" ry="11" fill="#1F2937" transform="rotate(15 122 78)"/>
  <!-- 눈 -->
  <circle cx="99" cy="79" r="4" fill="#FFFFFF"/>
  <circle cx="121" cy="79" r="4" fill="#FFFFFF"/>
  <circle cx="99.5" cy="79.5" r="2.2" fill="#1F2937"/>
  <circle cx="121.5" cy="79.5" r="2.2" fill="#1F2937"/>
  <circle cx="100" cy="78.5" r="0.8" fill="#FFFFFF"/>
  <circle cx="122" cy="78.5" r="0.8" fill="#FFFFFF"/>
  <!-- 코 -->
  <ellipse cx="110" cy="90" rx="4" ry="3" fill="#1F2937"/>
  <!-- 입 -->
  <path d="M 110 93 L 110 98 M 110 98 Q 104 102 102 100 M 110 98 Q 116 102 118 100" stroke="#1F2937" stroke-width="2" fill="none" stroke-linecap="round"/>
  <!-- 볼터치 -->
  <circle cx="82" cy="94" r="4" fill="#F472B6" opacity="0.5"/>
  <circle cx="138" cy="94" r="4" fill="#F472B6" opacity="0.5"/>
</svg>
