<svg xmlns="http://www.w3.org/2000/svg" viewBox="0 0 220 220" width="220" height="220">
  <ellipse cx="110" cy="195" rx="55" ry="6" fill="#000" opacity="0.15"/>
  <circle cx="78" cy="44" r="15" fill="#1F2937" stroke="#0F172A" stroke-width="2.8"/>
  <circle cx="142" cy="44" r="15" fill="#1F2937" stroke="#0F172A" stroke-width="2.8"/>
  <ellipse cx="84" cy="182" rx="15" ry="11" fill="#1F2937" stroke="#0F172A" stroke-width="2.8"/>
  <ellipse cx="136" cy="182" rx="15" ry="11" fill="#1F2937" stroke="#0F172A" stroke-width="2.8"/>
  <ellipse cx="110" cy="130" rx="54" ry="56" fill="#F9FAFB" stroke="#374151" stroke-width="3.2"/>
  <ellipse cx="66" cy="125" rx="14" ry="24" fill="#1F2937" stroke="#0F172A" stroke-width="2.5" transform="rotate(-10 66 125)"/>
  <ellipse cx="154" cy="135" rx="14" ry="24" fill="#1F2937" stroke="#0F172A" stroke-width="2.5" transform="rotate(10 154 135)"/>
  <!-- 댓잎 (들고 있는) -->
  <ellipse cx="156" cy="158" rx="6" ry="14" fill="#16A34A" stroke="#065F46" stroke-width="1.5" transform="rotate(35 156 158)"/>
  <ellipse cx="166" cy="148" rx="5" ry="12" fill="#22C55E" stroke="#065F46" stroke-width="1.5" transform="rotate(45 166 148)"/>
  <!-- 머리 -->
  <circle cx="110" cy="76" r="38" fill="#F9FAFB" stroke="#374151" stroke-width="3.2"/>
  <ellipse cx="96" cy="74" rx="10" ry="12" fill="#1F2937" transform="rotate(-15 96 74)"/>
  <ellipse cx="124" cy="74" rx="10" ry="12" fill="#1F2937" transform="rotate(15 124 74)"/>
  <circle cx="97" cy="75" r="4.5" fill="#FFFFFF"/>
  <circle cx="123" cy="75" r="4.5" fill="#FFFFFF"/>
  <circle cx="97.5" cy="75.5" r="2.5" fill="#1F2937"/>
  <circle cx="123.5" cy="75.5" r="2.5" fill="#1F2937"/>
  <circle cx="98" cy="74.5" r="1" fill="#FFFFFF"/>
  <circle cx="124" cy="74.5" r="1" fill="#FFFFFF"/>
  <ellipse cx="110" cy="86" rx="4.5" ry="3.2" fill="#1F2937"/>
  <path d="M 110 89 L 110 94 M 110 94 Q 103 99 100 97 M 110 94 Q 117 99 120 97" stroke="#1F2937" stroke-width="2.2" fill="none" stroke-linecap="round"/>
  <circle cx="78" cy="90" r="5" fill="#F472B6" opacity="0.6"/>
  <circle cx="142" cy="90" r="5" fill="#F472B6" opacity="0.6"/>
  <!-- 댓잎 모자 -->
  <ellipse cx="110" cy="42" rx="20" ry="6" fill="#16A34A" stroke="#065F46" stroke-width="1.5"/>
  <path d="M 90 42 L 130 42" stroke="#22C55E" stroke-width="2" opacity="0.6"/>
</svg>
