<svg xmlns="http://www.w3.org/2000/svg" viewBox="0 0 220 220" width="220" height="220">
  <defs>
    <radialGradient id="pAura4" cx="50%" cy="50%" r="50%">
      <stop offset="0%" stop-color="#FBBF24" stop-opacity="0.55"/>
      <stop offset="60%" stop-color="#FBBF24" stop-opacity="0.15"/>
      <stop offset="100%" stop-color="#FBBF24" stop-opacity="0"/>
    </radialGradient>
  </defs>
  <circle cx="110" cy="110" r="105" fill="url(#pAura4)"/>
  <text x="20" y="50" font-size="22" fill="#FBBF24">★</text>
  <text x="180" y="60" font-size="22" fill="#FBBF24">★</text>
  <text x="30" y="195" font-size="18" fill="#FCD34D">✦</text>
  <text x="175" y="200" font-size="18" fill="#FCD34D">✦</text>
  <text x="15" y="130" font-size="14" fill="#FBBF24">✦</text>
  <text x="195" y="120" font-size="14" fill="#FBBF24">✦</text>
  <ellipse cx="110" cy="200" rx="65" ry="7" fill="#000" opacity="0.18"/>
  <ellipse cx="84" cy="194" rx="17" ry="8" fill="#F59E0B" stroke="#92400E" stroke-width="2.5"/>
  <ellipse cx="136" cy="194" rx="17" ry="8" fill="#F59E0B" stroke="#92400E" stroke-width="2.5"/>
  <ellipse cx="110" cy="125" rx="64" ry="73" fill="#1F2937" stroke="#0F172A" stroke-width="4"/>
  <ellipse cx="110" cy="138" rx="40" ry="58" fill="#F9FAFB" stroke="#E5E7EB" stroke-width="2"/>
  <!-- 가슴 보석 -->
  <polygon points="110,128 102,140 110,160 118,140" fill="#DC2626" stroke="#7F1D1D" stroke-width="2"/>
  <circle cx="110" cy="135" r="3" fill="#FBBF24"/>
  <ellipse cx="54" cy="125" rx="16" ry="34" fill="#1F2937" stroke="#0F172A" stroke-width="2.8" transform="rotate(-16 54 125)"/>
  <ellipse cx="166" cy="125" rx="16" ry="34" fill="#1F2937" stroke="#0F172A" stroke-width="2.8" transform="rotate(16 166 125)"/>
  <circle cx="110" cy="68" r="40" fill="#1F2937" stroke="#0F172A" stroke-width="3.5"/>
  <ellipse cx="110" cy="78" rx="28" ry="28" fill="#F9FAFB"/>
  <circle cx="97" cy="70" r="7.5" fill="#FFFFFF" stroke="#0F172A" stroke-width="1.8"/>
  <circle cx="123" cy="70" r="7.5" fill="#FFFFFF" stroke="#0F172A" stroke-width="1.8"/>
  <circle cx="97" cy="72" r="4.3" fill="#1F2937"/>
  <circle cx="123" cy="72" r="4.3" fill="#1F2937"/>
  <circle cx="98.5" cy="70" r="1.6" fill="#FFFFFF"/>
  <circle cx="124.5" cy="70" r="1.6" fill="#FFFFFF"/>
  <polygon points="99,86 110,102 121,86" fill="#F59E0B" stroke="#92400E" stroke-width="2.2"/>
  <circle cx="80" cy="84" r="5.5" fill="#F472B6" opacity="0.7"/>
  <circle cx="140" cy="84" r="5.5" fill="#F472B6" opacity="0.7"/>
  <!-- 왕관 -->
  <polygon points="82,34 92,20 102,30 110,14 118,30 128,20 138,34 138,44 82,44" fill="#FBBF24" stroke="#92400E" stroke-width="2.5"/>
  <circle cx="92" cy="20" r="3" fill="#DC2626"/>
  <circle cx="110" cy="14" r="3.5" fill="#2563EB"/>
  <circle cx="128" cy="20" r="3" fill="#DC2626"/>
  <rect x="82" y="38" width="56" height="6" fill="#FCD34D" stroke="#92400E" stroke-width="1.5"/>
</svg>
