<svg xmlns="http://www.w3.org/2000/svg" viewBox="0 0 220 220" width="220" height="220">
  <ellipse cx="110" cy="195" rx="50" ry="6" fill="#000" opacity="0.15"/>
  <!-- 발 -->
  <ellipse cx="90" cy="190" rx="14" ry="6" fill="#F59E0B" stroke="#92400E" stroke-width="2"/>
  <ellipse cx="130" cy="190" rx="14" ry="6" fill="#F59E0B" stroke="#92400E" stroke-width="2"/>
  <!-- 몸 (검은 본체) -->
  <ellipse cx="110" cy="125" rx="50" ry="60" fill="#1F2937" stroke="#0F172A" stroke-width="3"/>
  <!-- 흰 배 -->
  <ellipse cx="110" cy="135" rx="32" ry="48" fill="#F9FAFB" stroke="#E5E7EB" stroke-width="1.5"/>
  <!-- 날개 (양손) -->
  <ellipse cx="65" cy="125" rx="13" ry="28" fill="#1F2937" stroke="#0F172A" stroke-width="2.5" transform="rotate(-10 65 125)"/>
  <ellipse cx="155" cy="125" rx="13" ry="28" fill="#1F2937" stroke="#0F172A" stroke-width="2.5" transform="rotate(10 155 125)"/>
  <!-- 머리 (몸과 연결, 조금 위) -->
  <circle cx="110" cy="78" r="34" fill="#1F2937" stroke="#0F172A" stroke-width="3"/>
  <!-- 얼굴 흰 부분 -->
  <ellipse cx="110" cy="85" rx="22" ry="22" fill="#F9FAFB"/>
  <!-- 눈 -->
  <circle cx="100" cy="78" r="6" fill="#FFFFFF" stroke="#0F172A" stroke-width="1.5"/>
  <circle cx="120" cy="78" r="6" fill="#FFFFFF" stroke="#0F172A" stroke-width="1.5"/>
  <circle cx="100" cy="80" r="3.5" fill="#1F2937"/>
  <circle cx="120" cy="80" r="3.5" fill="#1F2937"/>
  <circle cx="101.5" cy="78.5" r="1.3" fill="#FFFFFF"/>
  <circle cx="121.5" cy="78.5" r="1.3" fill="#FFFFFF"/>
  <!-- 부리 -->
  <polygon points="103,93 110,103 117,93" fill="#F59E0B" stroke="#92400E" stroke-width="2"/>
  <!-- 볼터치 -->
  <circle cx="86" cy="92" r="4" fill="#F472B6" opacity="0.55"/>
  <circle cx="134" cy="92" r="4" fill="#F472B6" opacity="0.55"/>
</svg>
