<svg xmlns="http://www.w3.org/2000/svg" viewBox="0 0 220 220" width="220" height="220">
  <ellipse cx="110" cy="195" rx="50" ry="6" fill="#000" opacity="0.15"/>
  <!-- 긴 귀 -->
  <ellipse cx="90" cy="40" rx="10" ry="28" fill="#FFFFFF" stroke="#374151" stroke-width="2.5"/>
  <ellipse cx="130" cy="40" rx="10" ry="28" fill="#FFFFFF" stroke="#374151" stroke-width="2.5"/>
  <ellipse cx="90" cy="42" rx="5" ry="20" fill="#FBB6CE"/>
  <ellipse cx="130" cy="42" rx="5" ry="20" fill="#FBB6CE"/>
  <!-- 발 -->
  <ellipse cx="86" cy="178" rx="14" ry="10" fill="#FFFFFF" stroke="#374151" stroke-width="2.5"/>
  <ellipse cx="134" cy="178" rx="14" ry="10" fill="#FFFFFF" stroke="#374151" stroke-width="2.5"/>
  <!-- 몸 -->
  <ellipse cx="110" cy="130" rx="48" ry="50" fill="#FFFFFF" stroke="#374151" stroke-width="3"/>
  <!-- 손 -->
  <ellipse cx="72" cy="130" rx="11" ry="15" fill="#FFFFFF" stroke="#374151" stroke-width="2.5"/>
  <ellipse cx="148" cy="130" rx="11" ry="15" fill="#FFFFFF" stroke="#374151" stroke-width="2.5"/>
  <!-- 머리 -->
  <circle cx="110" cy="86" r="34" fill="#FFFFFF" stroke="#374151" stroke-width="3"/>
  <!-- 눈 -->
  <circle cx="98" cy="80" r="5.5" fill="#1F2937"/>
  <circle cx="122" cy="80" r="5.5" fill="#1F2937"/>
  <circle cx="99.5" cy="78.5" r="1.6" fill="#FFFFFF"/>
  <circle cx="123.5" cy="78.5" r="1.6" fill="#FFFFFF"/>
  <!-- 코 -->
  <ellipse cx="110" cy="92" rx="3.5" ry="2.5" fill="#FBB6CE" stroke="#9D174D" stroke-width="1"/>
  <!-- 입 -->
  <path d="M 105 99 Q 110 102 115 99" stroke="#9D174D" stroke-width="1.8" fill="none" stroke-linecap="round"/>
  <!-- 앞니 -->
  <rect x="106" y="100" width="8" height="6" fill="#FFFFFF" stroke="#9D174D" stroke-width="1"/>
  <line x1="110" y1="100" x2="110" y2="106" stroke="#9D174D" stroke-width="1"/>
  <!-- 볼터치 -->
  <circle cx="84" cy="92" r="4.5" fill="#F472B6" opacity="0.6"/>
  <circle cx="136" cy="92" r="4.5" fill="#F472B6" opacity="0.6"/>
</svg>
