<svg xmlns="http://www.w3.org/2000/svg" viewBox="0 0 220 220" width="220" height="220">
  <ellipse cx="110" cy="195" rx="55" ry="6" fill="#000" opacity="0.15"/>
  <!-- 귀 -->
  <ellipse cx="88" cy="36" rx="11" ry="30" fill="#FFFFFF" stroke="#374151" stroke-width="2.5"/>
  <ellipse cx="132" cy="36" rx="11" ry="30" fill="#FFFFFF" stroke="#374151" stroke-width="2.5"/>
  <ellipse cx="88" cy="38" rx="5.5" ry="22" fill="#FBB6CE"/>
  <ellipse cx="132" cy="38" rx="5.5" ry="22" fill="#FBB6CE"/>
  <!-- 발 -->
  <ellipse cx="84" cy="180" rx="15" ry="11" fill="#FFFFFF" stroke="#374151" stroke-width="2.5"/>
  <ellipse cx="136" cy="180" rx="15" ry="11" fill="#FFFFFF" stroke="#374151" stroke-width="2.5"/>
  <!-- 몸 -->
  <ellipse cx="110" cy="130" rx="52" ry="55" fill="#FFFFFF" stroke="#374151" stroke-width="3"/>
  <!-- 손 -->
  <ellipse cx="68" cy="125" rx="12" ry="17" fill="#FFFFFF" stroke="#374151" stroke-width="2.5"/>
  <ellipse cx="148" cy="135" rx="11" ry="16" fill="#FFFFFF" stroke="#374151" stroke-width="2.5"/>
  <!-- 당근 -->
  <polygon points="146,155 156,160 152,176 142,170" fill="#F97316" stroke="#9A3412" stroke-width="2"/>
  <path d="M 144 155 L 150 148 L 156 155" stroke="#16A34A" stroke-width="2.5" fill="none"/>
  <!-- 머리 -->
  <circle cx="110" cy="80" r="36" fill="#FFFFFF" stroke="#374151" stroke-width="3"/>
  <circle cx="97" cy="74" r="6" fill="#1F2937"/>
  <circle cx="123" cy="74" r="6" fill="#1F2937"/>
  <circle cx="98.5" cy="72.5" r="1.7" fill="#FFFFFF"/>
  <circle cx="124.5" cy="72.5" r="1.7" fill="#FFFFFF"/>
  <ellipse cx="110" cy="87" rx="4" ry="2.8" fill="#FBB6CE" stroke="#9D174D" stroke-width="1"/>
  <path d="M 103 95 Q 110 100 117 95" stroke="#9D174D" stroke-width="2" fill="none" stroke-linecap="round"/>
  <rect x="105" y="96" width="10" height="7" fill="#FFFFFF" stroke="#9D174D" stroke-width="1"/>
  <line x1="110" y1="96" x2="110" y2="103" stroke="#9D174D" stroke-width="1"/>
  <circle cx="80" cy="88" r="5" fill="#F472B6" opacity="0.65"/>
  <circle cx="140" cy="88" r="5" fill="#F472B6" opacity="0.65"/>
  <!-- 분홍 리본 -->
  <path d="M 95 50 L 105 45 L 115 50 L 125 45 L 122 56 L 102 56 Z" fill="#F472B6" stroke="#9D174D" stroke-width="1.5"/>
  <circle cx="110" cy="50" r="3" fill="#FBBF24" stroke="#9D174D" stroke-width="1"/>
</svg>
