<svg xmlns="http://www.w3.org/2000/svg" viewBox="0 0 220 220" width="220" height="220">
  <defs>
    <radialGradient id="rAura3" cx="50%" cy="50%" r="50%">
      <stop offset="0%" stop-color="#FBBF24" stop-opacity="0.55"/>
      <stop offset="60%" stop-color="#FBBF24" stop-opacity="0.15"/>
      <stop offset="100%" stop-color="#FBBF24" stop-opacity="0"/>
    </radialGradient>
  </defs>
  <circle cx="110" cy="110" r="105" fill="url(#rAura3)"/>
  <text x="20" y="55" font-size="22" fill="#FBBF24">★</text>
  <text x="180" y="65" font-size="22" fill="#FBBF24">★</text>
  <text x="25" y="200" font-size="18" fill="#FCD34D">✦</text>
  <text x="175" y="205" font-size="18" fill="#FCD34D">✦</text>
  <ellipse cx="110" cy="200" rx="60" ry="7" fill="#000" opacity="0.18"/>
  <!-- 귀 (더 큼) -->
  <ellipse cx="86" cy="30" rx="12" ry="34" fill="#FFFFFF" stroke="#374151" stroke-width="2.8"/>
  <ellipse cx="134" cy="30" rx="12" ry="34" fill="#FFFFFF" stroke="#374151" stroke-width="2.8"/>
  <ellipse cx="86" cy="32" rx="6" ry="25" fill="#FBB6CE"/>
  <ellipse cx="134" cy="32" rx="6" ry="25" fill="#FBB6CE"/>
  <!-- 발 -->
  <ellipse cx="82" cy="184" rx="16" ry="12" fill="#FFFFFF" stroke="#374151" stroke-width="2.8"/>
  <ellipse cx="138" cy="184" rx="16" ry="12" fill="#FFFFFF" stroke="#374151" stroke-width="2.8"/>
  <!-- 몸 -->
  <ellipse cx="110" cy="130" rx="56" ry="58" fill="#FFFFFF" stroke="#374151" stroke-width="3.5"/>
  <!-- 가슴 메달 -->
  <circle cx="110" cy="135" r="13" fill="#FBBF24" stroke="#92400E" stroke-width="2.5"/>
  <text x="103" y="142" font-size="14" fill="#92400E" font-weight="bold">★</text>
  <!-- 손 -->
  <ellipse cx="62" cy="125" rx="13" ry="18" fill="#FFFFFF" stroke="#374151" stroke-width="2.8"/>
  <ellipse cx="158" cy="130" rx="13" ry="18" fill="#FFFFFF" stroke="#374151" stroke-width="2.8"/>
  <!-- 황금 당근 -->
  <polygon points="154,150 168,156 160,178 148,170" fill="#FBBF24" stroke="#92400E" stroke-width="2"/>
  <path d="M 151 150 L 158 142 L 166 150" stroke="#16A34A" stroke-width="2.8" fill="none"/>
  <!-- 머리 -->
  <circle cx="110" cy="74" r="38" fill="#FFFFFF" stroke="#374151" stroke-width="3.2"/>
  <circle cx="95" cy="68" r="6.5" fill="#1F2937"/>
  <circle cx="125" cy="68" r="6.5" fill="#1F2937"/>
  <circle cx="96.5" cy="66.5" r="1.8" fill="#FFFFFF"/>
  <circle cx="126.5" cy="66.5" r="1.8" fill="#FFFFFF"/>
  <ellipse cx="110" cy="82" rx="4.5" ry="3" fill="#FBB6CE" stroke="#9D174D" stroke-width="1.2"/>
  <path d="M 101 91 Q 110 98 119 91" stroke="#9D174D" stroke-width="2.2" fill="none" stroke-linecap="round"/>
  <rect x="104" y="93" width="12" height="8" fill="#FFFFFF" stroke="#9D174D" stroke-width="1"/>
  <line x1="110" y1="93" x2="110" y2="101" stroke="#9D174D" stroke-width="1"/>
  <circle cx="76" cy="84" r="5.5" fill="#F472B6" opacity="0.7"/>
  <circle cx="144" cy="84" r="5.5" fill="#F472B6" opacity="0.7"/>
  <!-- 왕관 -->
  <polygon points="84,22 94,8 104,18 110,2 116,18 126,8 136,22 136,32 84,32" fill="#FBBF24" stroke="#92400E" stroke-width="2.5"/>
  <circle cx="94" cy="8" r="3" fill="#DC2626"/>
  <circle cx="110" cy="2" r="3.5" fill="#2563EB"/>
  <circle cx="126" cy="8" r="3" fill="#DC2626"/>
  <rect x="84" y="26" width="52" height="6" fill="#FCD34D" stroke="#92400E" stroke-width="1.5"/>
</svg>
