<svg xmlns="http://www.w3.org/2000/svg" viewBox="0 0 220 220" width="220" height="220">
  <ellipse cx="110" cy="198" rx="60" ry="7" fill="#000" opacity="0.17"/>
  <text x="30" y="50" font-size="22" fill="#FBBF24">★</text>
  <text x="180" y="60" font-size="18" fill="#FBBF24">✦</text>
  <path d="M 156 130 Q 214 70 184 30 Q 210 90 170 175" fill="#92400E" stroke="#451A03" stroke-width="3.5"/>
  <path d="M 158 130 Q 210 75 184 45" fill="#D97706" stroke="#451A03" stroke-width="1.5" opacity="0.9"/>
  <path d="M 160 130 Q 200 90 178 65" stroke="#FDE68A" stroke-width="2.2" fill="none" opacity="0.75"/>
  <ellipse cx="105" cy="130" rx="50" ry="56" fill="#92400E" stroke="#451A03" stroke-width="3.5"/>
  <ellipse cx="105" cy="142" rx="30" ry="38" fill="#FDE68A" stroke="#D97706" stroke-width="1.8"/>
  <!-- 스카프 -->
  <path d="M 70 110 Q 105 116 140 110 L 140 125 Q 105 132 70 125 Z" fill="#2563EB" stroke="#1E3A8A" stroke-width="2"/>
  <ellipse cx="68" cy="125" rx="13" ry="18" fill="#92400E" stroke="#451A03" stroke-width="2.5"/>
  <ellipse cx="142" cy="135" rx="12" ry="17" fill="#92400E" stroke="#451A03" stroke-width="2.5"/>
  <!-- 황금 도토리 -->
  <ellipse cx="142" cy="158" rx="9" ry="11" fill="#FBBF24" stroke="#92400E" stroke-width="2"/>
  <path d="M 133 153 L 151 153 L 148 146 L 136 146 Z" fill="#451A03" stroke="#1F0701" stroke-width="1"/>
  <ellipse cx="86" cy="182" rx="12" ry="9" fill="#92400E" stroke="#451A03" stroke-width="2"/>
  <ellipse cx="124" cy="182" rx="12" ry="9" fill="#92400E" stroke="#451A03" stroke-width="2"/>
  <circle cx="105" cy="68" r="36" fill="#92400E" stroke="#451A03" stroke-width="3"/>
  <ellipse cx="80" cy="40" rx="11" ry="15" fill="#92400E" stroke="#451A03" stroke-width="2.5"/>
  <ellipse cx="130" cy="40" rx="11" ry="15" fill="#92400E" stroke="#451A03" stroke-width="2.5"/>
  <ellipse cx="80" cy="42" rx="5" ry="9" fill="#FDE68A"/>
  <ellipse cx="130" cy="42" rx="5" ry="9" fill="#FDE68A"/>
  <ellipse cx="105" cy="78" rx="24" ry="16" fill="#FDE68A"/>
  <circle cx="92" cy="63" r="7" fill="#FFFFFF" stroke="#451A03" stroke-width="1.5"/>
  <circle cx="118" cy="63" r="7" fill="#FFFFFF" stroke="#451A03" stroke-width="1.5"/>
  <circle cx="93" cy="65" r="4" fill="#1F2937"/>
  <circle cx="119" cy="65" r="4" fill="#1F2937"/>
  <circle cx="94.5" cy="63" r="1.4" fill="#FFFFFF"/>
  <circle cx="120.5" cy="63" r="1.4" fill="#FFFFFF"/>
  <ellipse cx="105" cy="78" rx="3.5" ry="2.5" fill="#1F2937"/>
  <path d="M 97 86 Q 105 94 113 86" stroke="#451A03" stroke-width="2.5" fill="none" stroke-linecap="round"/>
  <rect x="101" y="87" width="8" height="7" fill="#FFFFFF" stroke="#451A03" stroke-width="1"/>
  <line x1="105" y1="87" x2="105" y2="94" stroke="#451A03" stroke-width="1"/>
  <circle cx="76" cy="74" r="5" fill="#F472B6" opacity="0.65"/>
  <circle cx="134" cy="74" r="5" fill="#F472B6" opacity="0.65"/>
</svg>
