<svg xmlns="http://www.w3.org/2000/svg" viewBox="0 0 220 220" width="220" height="220">
  <ellipse cx="110" cy="195" rx="55" ry="6" fill="#000" opacity="0.15"/>
  <!-- 꼬리 (더 풍성) -->
  <path d="M 158 130 Q 210 75 180 38 Q 205 95 168 170" fill="#92400E" stroke="#451A03" stroke-width="3.2"/>
  <path d="M 160 130 Q 206 80 180 50 Q 200 100 170 165" fill="#D97706" stroke="#451A03" stroke-width="1.5" opacity="0.9"/>
  <path d="M 162 130 Q 200 90 180 65" stroke="#FDE68A" stroke-width="2" fill="none" opacity="0.7"/>
  <ellipse cx="105" cy="130" rx="46" ry="52" fill="#92400E" stroke="#451A03" stroke-width="3.2"/>
  <ellipse cx="105" cy="142" rx="28" ry="35" fill="#FDE68A" stroke="#D97706" stroke-width="1.5"/>
  <!-- 손 + 도토리 -->
  <ellipse cx="72" cy="125" rx="12" ry="17" fill="#92400E" stroke="#451A03" stroke-width="2.5"/>
  <ellipse cx="138" cy="135" rx="11" ry="16" fill="#92400E" stroke="#451A03" stroke-width="2.5"/>
  <!-- 도토리 -->
  <ellipse cx="138" cy="155" rx="8" ry="10" fill="#92400E" stroke="#451A03" stroke-width="1.8"/>
  <path d="M 130 150 L 146 150 L 144 144 L 132 144 Z" fill="#451A03" stroke="#1F0701" stroke-width="1"/>
  <ellipse cx="88" cy="180" rx="11" ry="9" fill="#92400E" stroke="#451A03" stroke-width="2"/>
  <ellipse cx="122" cy="180" rx="11" ry="9" fill="#92400E" stroke="#451A03" stroke-width="2"/>
  <!-- 머리 -->
  <circle cx="105" cy="72" r="34" fill="#92400E" stroke="#451A03" stroke-width="3"/>
  <ellipse cx="82" cy="46" rx="10" ry="14" fill="#92400E" stroke="#451A03" stroke-width="2.5"/>
  <ellipse cx="128" cy="46" rx="10" ry="14" fill="#92400E" stroke="#451A03" stroke-width="2.5"/>
  <ellipse cx="82" cy="48" rx="4.5" ry="8" fill="#FDE68A"/>
  <ellipse cx="128" cy="48" rx="4.5" ry="8" fill="#FDE68A"/>
  <ellipse cx="105" cy="82" rx="22" ry="15" fill="#FDE68A"/>
  <circle cx="93" cy="68" r="6.5" fill="#FFFFFF" stroke="#451A03" stroke-width="1.5"/>
  <circle cx="117" cy="68" r="6.5" fill="#FFFFFF" stroke="#451A03" stroke-width="1.5"/>
  <circle cx="94" cy="70" r="3.8" fill="#1F2937"/>
  <circle cx="118" cy="70" r="3.8" fill="#1F2937"/>
  <circle cx="95.5" cy="68" r="1.4" fill="#FFFFFF"/>
  <circle cx="119.5" cy="68" r="1.4" fill="#FFFFFF"/>
  <ellipse cx="105" cy="82" rx="3.2" ry="2.2" fill="#1F2937"/>
  <path d="M 98 90 Q 105 96 112 90" stroke="#451A03" stroke-width="2.2" fill="none" stroke-linecap="round"/>
  <rect x="102" y="91" width="6" height="6" fill="#FFFFFF" stroke="#451A03" stroke-width="1"/>
  <line x1="105" y1="91" x2="105" y2="97" stroke="#451A03" stroke-width="1"/>
  <circle cx="78" cy="78" r="4.5" fill="#F472B6" opacity="0.6"/>
  <circle cx="132" cy="78" r="4.5" fill="#F472B6" opacity="0.6"/>
</svg>
