<svg xmlns="http://www.w3.org/2000/svg" viewBox="0 0 220 220" width="220" height="220">
  <ellipse cx="110" cy="195" rx="50" ry="6" fill="#000" opacity="0.15"/>
  <!-- 큰 꼬리 (오른쪽) -->
  <path d="M 160 130 Q 200 80 175 50 Q 195 100 165 165" fill="#92400E" stroke="#451A03" stroke-width="3"/>
  <path d="M 162 130 Q 196 85 175 60 Q 192 105 168 158" fill="#D97706" stroke="#451A03" stroke-width="1.5" opacity="0.9"/>
  <!-- 몸 -->
  <ellipse cx="105" cy="130" rx="42" ry="48" fill="#92400E" stroke="#451A03" stroke-width="3"/>
  <!-- 배 -->
  <ellipse cx="105" cy="142" rx="25" ry="32" fill="#FDE68A" stroke="#D97706" stroke-width="1.5"/>
  <!-- 손 -->
  <ellipse cx="74" cy="130" rx="11" ry="16" fill="#92400E" stroke="#451A03" stroke-width="2.5"/>
  <ellipse cx="135" cy="135" rx="10" ry="15" fill="#92400E" stroke="#451A03" stroke-width="2.5"/>
  <!-- 발 -->
  <ellipse cx="88" cy="178" rx="10" ry="8" fill="#92400E" stroke="#451A03" stroke-width="2"/>
  <ellipse cx="122" cy="178" rx="10" ry="8" fill="#92400E" stroke="#451A03" stroke-width="2"/>
  <!-- 머리 -->
  <circle cx="105" cy="75" r="32" fill="#92400E" stroke="#451A03" stroke-width="3"/>
  <!-- 귀 -->
  <ellipse cx="84" cy="50" rx="9" ry="13" fill="#92400E" stroke="#451A03" stroke-width="2.5"/>
  <ellipse cx="126" cy="50" rx="9" ry="13" fill="#92400E" stroke="#451A03" stroke-width="2.5"/>
  <ellipse cx="84" cy="52" rx="4" ry="7" fill="#FDE68A"/>
  <ellipse cx="126" cy="52" rx="4" ry="7" fill="#FDE68A"/>
  <!-- 얼굴 흰 부분 -->
  <ellipse cx="105" cy="85" rx="20" ry="14" fill="#FDE68A"/>
  <!-- 눈 -->
  <circle cx="94" cy="72" r="6" fill="#FFFFFF" stroke="#451A03" stroke-width="1.5"/>
  <circle cx="116" cy="72" r="6" fill="#FFFFFF" stroke="#451A03" stroke-width="1.5"/>
  <circle cx="95" cy="74" r="3.5" fill="#1F2937"/>
  <circle cx="117" cy="74" r="3.5" fill="#1F2937"/>
  <circle cx="96.5" cy="72.5" r="1.3" fill="#FFFFFF"/>
  <circle cx="118.5" cy="72.5" r="1.3" fill="#FFFFFF"/>
  <!-- 코·입 -->
  <ellipse cx="105" cy="84" rx="3" ry="2" fill="#1F2937"/>
  <path d="M 100 92 Q 105 96 110 92" stroke="#451A03" stroke-width="2" fill="none" stroke-linecap="round"/>
  <!-- 앞니 -->
  <rect x="103" y="93" width="4" height="5" fill="#FFFFFF" stroke="#451A03" stroke-width="1"/>
  <!-- 볼터치 -->
  <circle cx="80" cy="80" r="4" fill="#F472B6" opacity="0.55"/>
  <circle cx="130" cy="80" r="4" fill="#F472B6" opacity="0.55"/>
</svg>
