<svg xmlns="http://www.w3.org/2000/svg" viewBox="0 0 220 220" width="220" height="220">
  <ellipse cx="110" cy="198" rx="65" ry="6" fill="#000" opacity="0.18"/>
  <!-- 별 데코 -->
  <text x="35" y="50" font-size="22" fill="#FBBF24">★</text>
  <text x="170" y="60" font-size="18" fill="#FBBF24">✦</text>
  <!-- 다리 -->
  <ellipse cx="64" cy="148" rx="13" ry="16" fill="#34D399" stroke="#065F46" stroke-width="2.5"/>
  <ellipse cx="156" cy="148" rx="13" ry="16" fill="#34D399" stroke="#065F46" stroke-width="2.5"/>
  <ellipse cx="72" cy="180" rx="12" ry="15" fill="#34D399" stroke="#065F46" stroke-width="2.5"/>
  <ellipse cx="148" cy="180" rx="12" ry="15" fill="#34D399" stroke="#065F46" stroke-width="2.5"/>
  <ellipse cx="110" cy="185" rx="8" ry="12" fill="#34D399" stroke="#065F46" stroke-width="2"/>
  <!-- 등딱지 -->
  <ellipse cx="110" cy="128" rx="70" ry="50" fill="#16A34A" stroke="#065F46" stroke-width="4"/>
  <polygon points="110,100 132,114 132,138 110,152 88,138 88,114" fill="#22C55E" stroke="#065F46" stroke-width="2.2"/>
  <polygon points="72,122 84,130 84,144 72,152 60,144 60,130" fill="#22C55E" stroke="#065F46" stroke-width="2.2"/>
  <polygon points="148,122 160,130 160,144 148,152 136,144 136,130" fill="#22C55E" stroke="#065F46" stroke-width="2.2"/>
  <polygon points="92,154 102,160 102,170 92,176 82,170 82,160" fill="#22C55E" stroke="#065F46" stroke-width="1.8"/>
  <polygon points="128,154 138,160 138,170 128,176 118,170 118,160" fill="#22C55E" stroke="#065F46" stroke-width="1.8"/>
  <ellipse cx="93" cy="107" rx="17" ry="7" fill="#FFFFFF" opacity="0.4"/>
  <!-- 머리 -->
  <circle cx="110" cy="68" r="31" fill="#86EFAC" stroke="#065F46" stroke-width="3"/>
  <circle cx="98" cy="65" r="6.5" fill="#FFFFFF" stroke="#065F46" stroke-width="1.5"/>
  <circle cx="122" cy="65" r="6.5" fill="#FFFFFF" stroke="#065F46" stroke-width="1.5"/>
  <circle cx="100" cy="67" r="4" fill="#1F2937"/>
  <circle cx="124" cy="67" r="4" fill="#1F2937"/>
  <circle cx="101.5" cy="65" r="1.4" fill="#FFFFFF"/>
  <circle cx="125.5" cy="65" r="1.4" fill="#FFFFFF"/>
  <path d="M 98 82 Q 110 92 122 82" stroke="#065F46" stroke-width="2.5" fill="none" stroke-linecap="round"/>
  <circle cx="86" cy="78" r="4.5" fill="#F87171" opacity="0.6"/>
  <circle cx="134" cy="78" r="4.5" fill="#F87171" opacity="0.6"/>
  <!-- 두 줄 띠 (스카프) -->
  <path d="M 78 96 Q 110 100 142 96 L 142 105 Q 110 109 78 105 Z" fill="#2563EB" stroke="#1E3A8A" stroke-width="1.5"/>
  <path d="M 78 96 Q 110 100 142 96" stroke="#1E40AF" stroke-width="1.2" fill="none" opacity="0.6"/>
</svg>
