<svg xmlns="http://www.w3.org/2000/svg" viewBox="0 0 220 220" width="220" height="220">
  <!-- 후광 -->
  <circle cx="110" cy="110" r="100" fill="url(#aura4)"/>
  <defs>
    <radialGradient id="aura4" cx="50%" cy="50%" r="50%">
      <stop offset="0%" stop-color="#FBBF24" stop-opacity="0.55"/>
      <stop offset="60%" stop-color="#FBBF24" stop-opacity="0.15"/>
      <stop offset="100%" stop-color="#FBBF24" stop-opacity="0"/>
    </radialGradient>
  </defs>
  <!-- 별·반짝이 -->
  <text x="22" y="48" font-size="22" fill="#FBBF24">★</text>
  <text x="180" y="58" font-size="22" fill="#FBBF24">★</text>
  <text x="35" y="195" font-size="18" fill="#FCD34D">✦</text>
  <text x="170" y="195" font-size="18" fill="#FCD34D">✦</text>
  <text x="20" y="120" font-size="14" fill="#FBBF24">✦</text>
  <text x="190" y="130" font-size="14" fill="#FBBF24">✦</text>
  <!-- 그림자 -->
  <ellipse cx="110" cy="200" rx="70" ry="7" fill="#000" opacity="0.18"/>
  <!-- 다리 -->
  <ellipse cx="62" cy="150" rx="14" ry="17" fill="#34D399" stroke="#065F46" stroke-width="2.8"/>
  <ellipse cx="158" cy="150" rx="14" ry="17" fill="#34D399" stroke="#065F46" stroke-width="2.8"/>
  <ellipse cx="70" cy="182" rx="13" ry="16" fill="#34D399" stroke="#065F46" stroke-width="2.8"/>
  <ellipse cx="150" cy="182" rx="13" ry="16" fill="#34D399" stroke="#065F46" stroke-width="2.8"/>
  <ellipse cx="110" cy="188" rx="9" ry="13" fill="#34D399" stroke="#065F46" stroke-width="2.2"/>
  <!-- 등딱지 -->
  <ellipse cx="110" cy="128" rx="74" ry="54" fill="#15803D" stroke="#064E3B" stroke-width="4.5"/>
  <polygon points="110,95 134,110 134,138 110,154 86,138 86,110" fill="#22C55E" stroke="#064E3B" stroke-width="2.5"/>
  <polygon points="68,120 82,128 82,144 68,152 54,144 54,128" fill="#22C55E" stroke="#064E3B" stroke-width="2.5"/>
  <polygon points="152,120 166,128 166,144 152,152 138,144 138,128" fill="#22C55E" stroke="#064E3B" stroke-width="2.5"/>
  <polygon points="88,152 100,159 100,170 88,177 76,170 76,159" fill="#22C55E" stroke="#064E3B" stroke-width="2"/>
  <polygon points="132,152 144,159 144,170 132,177 120,170 120,159" fill="#22C55E" stroke="#064E3B" stroke-width="2"/>
  <ellipse cx="92" cy="105" rx="20" ry="8" fill="#FFFFFF" opacity="0.45"/>
  <!-- 머리 -->
  <circle cx="110" cy="64" r="33" fill="#86EFAC" stroke="#064E3B" stroke-width="3.2"/>
  <circle cx="97" cy="62" r="7" fill="#FFFFFF" stroke="#064E3B" stroke-width="1.5"/>
  <circle cx="123" cy="62" r="7" fill="#FFFFFF" stroke="#064E3B" stroke-width="1.5"/>
  <circle cx="99" cy="64" r="4.3" fill="#1F2937"/>
  <circle cx="125" cy="64" r="4.3" fill="#1F2937"/>
  <circle cx="100.5" cy="62" r="1.5" fill="#FFFFFF"/>
  <circle cx="126.5" cy="62" r="1.5" fill="#FFFFFF"/>
  <path d="M 96 80 Q 110 92 124 80" stroke="#064E3B" stroke-width="2.8" fill="none" stroke-linecap="round"/>
  <circle cx="83" cy="76" r="5" fill="#F87171" opacity="0.65"/>
  <circle cx="137" cy="76" r="5" fill="#F87171" opacity="0.65"/>
  <!-- 왕관 -->
  <polygon points="82,42 92,28 102,38 110,22 118,38 128,28 138,42 138,52 82,52" fill="#FBBF24" stroke="#92400E" stroke-width="2.5"/>
  <circle cx="92" cy="28" r="3" fill="#DC2626" stroke="#7F1D1D" stroke-width="1"/>
  <circle cx="110" cy="22" r="3.5" fill="#2563EB" stroke="#1E3A8A" stroke-width="1"/>
  <circle cx="128" cy="28" r="3" fill="#DC2626" stroke="#7F1D1D" stroke-width="1"/>
  <rect x="82" y="46" width="56" height="6" fill="#FCD34D" stroke="#92400E" stroke-width="1.5"/>
</svg>
